<svg id="visual" viewBox="0 0 900 600" width="900" height="600" xmlns="http://www.w3.org/2000/svg" xmlns:xlink="http://www.w3.org/1999/xlink" version="1.1"><rect x="0" y="0" width="900" height="600" fill="#FFF"></rect><g transform="translate(456.6803690434434 250.4737424624119)"><path d="M169.6 -264.2C209.3 -238.3 224.1 -173.7 269.8 -111.9C315.6 -50.2 392.4 8.6 395.4 63.9C398.4 119.2 327.7 170.9 274.2 243.6C220.6 316.3 184.3 410 121.5 440.7C58.8 471.4 -30.3 439.1 -89.1 384.8C-147.9 330.4 -176.4 253.9 -222.1 195.6C-267.9 137.2 -330.9 96.9 -368.9 34.4C-407 -28.2 -420 -112.9 -398.5 -191.1C-377 -269.2 -320.9 -340.7 -248.8 -351.9C-176.6 -363.1 -88.3 -314.1 -11.7 -295.8C64.9 -277.6 129.8 -290.2 169.6 -264.2" fill="#000"></path></g></svg>